<svg xmlns="http://www.w3.org/2000/svg" xmlns:xlink="http://www.w3.org/1999/xlink" width="516pt" height="194pt" viewBox="0.00 0.00 516.00 194.00">
<g id="graph0" class="graph" transform="scale(1 1) rotate(0) translate(4 190)">
<title>G</title>
<polygon fill="white" stroke="none" points="-4,4 -4,-190 512.11,-190 512.11,4 -4,4"/>
<!-- aaa -->
<g id="node1" class="node">
<title>aaa</title>
<path fill="none" stroke="black" d="M42,-105C42,-105 12,-105 12,-105 6,-105 0,-99 0,-93 0,-93 0,-81 0,-81 0,-75 6,-69 12,-69 12,-69 42,-69 42,-69 48,-69 54,-75 54,-81 54,-81 54,-93 54,-93 54,-99 48,-105 42,-105"/>
<text xml:space="preserve" text-anchor="middle" x="27" y="-82.8" font-family="Helvetica,sans-Serif" font-size="14.00">aaa</text>
</g>
<!-- you -->
<g id="node3" class="node">
<title>you</title>
<ellipse fill="none" stroke="black" cx="117.15" cy="-114" rx="27" ry="18"/>
<text xml:space="preserve" text-anchor="middle" x="117.15" y="-109.8" font-family="Helvetica,sans-Serif" font-size="14.00">you</text>
</g>
<!-- aaa&#45;&gt;you -->
<g id="edge1" class="edge">
<title>aaa-&gt;you</title>
<path fill="none" stroke="black" d="M54.45,-95.1C62.86,-97.68 72.3,-100.57 81.22,-103.3"/>
<polygon fill="black" stroke="black" points="80.09,-106.62 90.68,-106.2 82.14,-99.92 80.09,-106.62"/>
</g>
<!-- hhh -->
<g id="node4" class="node">
<title>hhh</title>
<ellipse fill="none" stroke="black" cx="117.15" cy="-60" rx="27.15" ry="18"/>
<text xml:space="preserve" text-anchor="middle" x="117.15" y="-55.8" font-family="Helvetica,sans-Serif" font-size="14.00">hhh</text>
</g>
<!-- aaa&#45;&gt;hhh -->
<g id="edge2" class="edge">
<title>aaa-&gt;hhh</title>
<path fill="none" stroke="black" d="M54.45,-78.9C62.86,-76.32 72.3,-73.43 81.22,-70.7"/>
<polygon fill="black" stroke="black" points="82.14,-74.08 90.68,-67.8 80.09,-67.38 82.14,-74.08"/>
</g>
<!-- out -->
<g id="node2" class="node">
<title>out</title>
<ellipse fill="none" stroke="black" cx="479.65" cy="-88" rx="24.46" ry="24.46"/>
<ellipse fill="none" stroke="black" cx="479.65" cy="-88" rx="28.46" ry="28.46"/>
<text xml:space="preserve" text-anchor="middle" x="479.65" y="-83.8" font-family="Helvetica,sans-Serif" font-size="14.00">out</text>
</g>
<!-- bbb -->
<g id="node5" class="node">
<title>bbb</title>
<ellipse fill="none" stroke="black" cx="207.45" cy="-164" rx="27.15" ry="18"/>
<text xml:space="preserve" text-anchor="middle" x="207.45" y="-159.8" font-family="Helvetica,sans-Serif" font-size="14.00">bbb</text>
</g>
<!-- you&#45;&gt;bbb -->
<g id="edge3" class="edge">
<title>you-&gt;bbb</title>
<path fill="none" stroke="black" d="M138.18,-125.35C149.51,-131.76 163.88,-139.9 176.52,-147.05"/>
<polygon fill="black" stroke="black" points="174.44,-149.9 184.87,-151.78 177.89,-143.81 174.44,-149.9"/>
</g>
<!-- ccc -->
<g id="node6" class="node">
<title>ccc</title>
<ellipse fill="none" stroke="black" cx="207.45" cy="-110" rx="27" ry="18"/>
<text xml:space="preserve" text-anchor="middle" x="207.45" y="-105.8" font-family="Helvetica,sans-Serif" font-size="14.00">ccc</text>
</g>
<!-- you&#45;&gt;ccc -->
<g id="edge4" class="edge">
<title>you-&gt;ccc</title>
<path fill="none" stroke="black" d="M144.16,-112.82C151.84,-112.47 160.4,-112.09 168.66,-111.71"/>
<polygon fill="black" stroke="black" points="168.66,-115.22 178.49,-111.27 168.35,-108.22 168.66,-115.22"/>
</g>
<!-- hhh&#45;&gt;ccc -->
<g id="edge14" class="edge">
<title>hhh-&gt;ccc</title>
<path fill="none" stroke="black" d="M138.63,-71.6C149.77,-77.91 163.77,-85.84 176.16,-92.85"/>
<polygon fill="black" stroke="black" points="174.33,-95.84 184.76,-97.72 177.78,-89.75 174.33,-95.84"/>
</g>
<!-- fff -->
<g id="node9" class="node">
<title>fff</title>
<ellipse fill="none" stroke="black" cx="297.74" cy="-60" rx="27" ry="18"/>
<text xml:space="preserve" text-anchor="middle" x="297.74" y="-55.8" font-family="Helvetica,sans-Serif" font-size="14.00">fff</text>
</g>
<!-- hhh&#45;&gt;fff -->
<g id="edge15" class="edge">
<title>hhh-&gt;fff</title>
<path fill="none" stroke="black" d="M144.5,-60C174.71,-60 224.46,-60 258.83,-60"/>
<polygon fill="black" stroke="black" points="258.77,-63.5 268.77,-60 258.77,-56.5 258.77,-63.5"/>
</g>
<!-- iii -->
<g id="node11" class="node">
<title>iii</title>
<ellipse fill="none" stroke="black" cx="388.04" cy="-18" rx="27" ry="18"/>
<text xml:space="preserve" text-anchor="middle" x="388.04" y="-13.8" font-family="Helvetica,sans-Serif" font-size="14.00">iii</text>
</g>
<!-- hhh&#45;&gt;iii -->
<g id="edge16" class="edge">
<title>hhh-&gt;iii</title>
<path fill="none" stroke="black" d="M143.71,-55.09C173.95,-49.38 225.83,-39.84 270.59,-33 297.02,-28.96 326.93,-25.12 349.82,-22.34"/>
<polygon fill="black" stroke="black" points="350.08,-25.84 359.59,-21.17 349.24,-18.89 350.08,-25.84"/>
</g>
<!-- ddd -->
<g id="node7" class="node">
<title>ddd</title>
<ellipse fill="none" stroke="black" cx="297.74" cy="-114" rx="27.15" ry="18"/>
<text xml:space="preserve" text-anchor="middle" x="297.74" y="-109.8" font-family="Helvetica,sans-Serif" font-size="14.00">ddd</text>
</g>
<!-- bbb&#45;&gt;ddd -->
<g id="edge5" class="edge">
<title>bbb-&gt;ddd</title>
<path fill="none" stroke="black" d="M228.93,-152.4C240.07,-146.09 254.07,-138.16 266.45,-131.15"/>
<polygon fill="black" stroke="black" points="268.08,-134.25 275.06,-126.28 264.63,-128.16 268.08,-134.25"/>
</g>
<!-- eee -->
<g id="node8" class="node">
<title>eee</title>
<ellipse fill="none" stroke="black" cx="297.74" cy="-168" rx="27.15" ry="18"/>
<text xml:space="preserve" text-anchor="middle" x="297.74" y="-163.8" font-family="Helvetica,sans-Serif" font-size="14.00">eee</text>
</g>
<!-- bbb&#45;&gt;eee -->
<g id="edge6" class="edge">
<title>bbb-&gt;eee</title>
<path fill="none" stroke="black" d="M234.94,-165.2C242.45,-165.54 250.77,-165.92 258.81,-166.28"/>
<polygon fill="black" stroke="black" points="258.61,-169.78 268.76,-166.73 258.93,-162.78 258.61,-169.78"/>
</g>
<!-- ccc&#45;&gt;ddd -->
<g id="edge7" class="edge">
<title>ccc-&gt;ddd</title>
<path fill="none" stroke="black" d="M234.46,-111.18C242.14,-111.53 250.7,-111.91 258.96,-112.29"/>
<polygon fill="black" stroke="black" points="258.64,-115.78 268.79,-112.73 258.96,-108.78 258.64,-115.78"/>
</g>
<!-- ccc&#45;&gt;eee -->
<g id="edge8" class="edge">
<title>ccc-&gt;eee</title>
<path fill="none" stroke="black" d="M227.17,-122.3C239.15,-130.17 254.91,-140.52 268.4,-149.38"/>
<polygon fill="black" stroke="black" points="266.2,-152.12 276.48,-154.69 270.04,-146.27 266.2,-152.12"/>
</g>
<!-- ccc&#45;&gt;fff -->
<g id="edge9" class="edge">
<title>ccc-&gt;fff</title>
<path fill="none" stroke="black" d="M228.48,-98.65C239.8,-92.24 254.18,-84.1 266.81,-76.95"/>
<polygon fill="black" stroke="black" points="268.19,-80.19 275.16,-72.22 264.74,-74.1 268.19,-80.19"/>
</g>
<!-- ggg -->
<g id="node10" class="node">
<title>ggg</title>
<ellipse fill="none" stroke="black" cx="388.04" cy="-112" rx="27.15" ry="18"/>
<text xml:space="preserve" text-anchor="middle" x="388.04" y="-107.8" font-family="Helvetica,sans-Serif" font-size="14.00">ggg</text>
</g>
<!-- ddd&#45;&gt;ggg -->
<g id="edge10" class="edge">
<title>ddd-&gt;ggg</title>
<path fill="none" stroke="black" d="M325.24,-113.4C332.74,-113.23 341.07,-113.04 349.11,-112.86"/>
<polygon fill="black" stroke="black" points="349.14,-116.36 359.05,-112.63 348.98,-109.36 349.14,-116.36"/>
</g>
<!-- eee&#45;&gt;out -->
<g id="edge11" class="edge">
<title>eee-&gt;out</title>
<path fill="none" stroke="black" d="M324.84,-164.79C349.2,-161.05 386.07,-153.44 415.19,-139 427.63,-132.83 439.86,-123.89 450.22,-115.21"/>
<polygon fill="black" stroke="black" points="452.42,-117.93 457.66,-108.72 447.82,-112.65 452.42,-117.93"/>
</g>
<!-- fff&#45;&gt;out -->
<g id="edge12" class="edge">
<title>fff-&gt;out</title>
<path fill="none" stroke="black" d="M324.52,-64.01C354.72,-68.71 405.07,-76.55 439.96,-81.98"/>
<polygon fill="black" stroke="black" points="439.24,-85.41 449.66,-83.49 440.31,-78.49 439.24,-85.41"/>
</g>
<!-- ggg&#45;&gt;out -->
<g id="edge13" class="edge">
<title>ggg-&gt;out</title>
<path fill="none" stroke="black" d="M413.53,-105.44C421.93,-103.19 431.54,-100.62 440.75,-98.15"/>
<polygon fill="black" stroke="black" points="441.46,-101.58 450.21,-95.62 439.65,-94.82 441.46,-101.58"/>
</g>
<!-- iii&#45;&gt;out -->
<g id="edge17" class="edge">
<title>iii-&gt;out</title>
<path fill="none" stroke="black" d="M406.32,-31.5C418.08,-40.69 433.98,-53.11 447.88,-63.96"/>
<polygon fill="black" stroke="black" points="445.43,-66.49 455.47,-69.89 449.74,-60.97 445.43,-66.49"/>
</g>
</g>
</svg>